<svg width="20" height="20" viewBox="0 0 20 20" fill="none" xmlns="http://www.w3.org/2000/svg">
<path fill-rule="evenodd" clip-rule="evenodd" d="M9.99998 3.33333C9.54165 3.33333 9.16665 3.70833 9.16665 4.16667V16.6667C9.16665 17.125 9.54165 17.5 9.99998 17.5C10.4583 17.5 10.8333 17.125 10.8333 16.6667V4.16667C10.8333 3.70833 10.4583 3.33333 9.99998 3.33333ZM15.8333 10C15.375 10 15 10.375 15 10.8333V16.6667C15 17.125 15.375 17.5 15.8333 17.5C16.2916 17.5 16.6666 17.125 16.6666 16.6667V10.8333C16.6666 10.375 16.2916 10 15.8333 10ZM3.33331 7.5C3.33331 7.04167 3.70831 6.66667 4.16665 6.66667C4.62498 6.66667 4.99998 7.04167 4.99998 7.5V16.6667C4.99998 17.125 4.62498 17.5 4.16665 17.5C3.70831 17.5 3.33331 17.125 3.33331 16.6667V7.5Z" fill="#8F9BB3"/>
<mask id="mask0_261_307" style="mask-type:alpha" maskUnits="userSpaceOnUse" x="3" y="3" width="14" height="15">
<path fill-rule="evenodd" clip-rule="evenodd" d="M9.99998 3.33333C9.54165 3.33333 9.16665 3.70833 9.16665 4.16667V16.6667C9.16665 17.125 9.54165 17.5 9.99998 17.5C10.4583 17.5 10.8333 17.125 10.8333 16.6667V4.16667C10.8333 3.70833 10.4583 3.33333 9.99998 3.33333ZM15.8333 10C15.375 10 15 10.375 15 10.8333V16.6667C15 17.125 15.375 17.5 15.8333 17.5C16.2916 17.5 16.6666 17.125 16.6666 16.6667V10.8333C16.6666 10.375 16.2916 10 15.8333 10ZM3.33331 7.5C3.33331 7.04167 3.70831 6.66667 4.16665 6.66667C4.62498 6.66667 4.99998 7.04167 4.99998 7.5V16.6667C4.99998 17.125 4.62498 17.5 4.16665 17.5C3.70831 17.5 3.33331 17.125 3.33331 16.6667V7.5Z" fill="white"/>
</mask>
<g mask="url(#mask0_261_307)">
</g>
</svg>
