<svg width="40" height="40" viewBox="0 0 40 40" fill="none" xmlns="http://www.w3.org/2000/svg">
<path fill-rule="evenodd" clip-rule="evenodd" d="M20 25.8333C18.6217 25.8333 17.5 24.7117 17.5 23.3333C17.5 21.955 18.6217 20.8333 20 20.8333C21.3783 20.8333 22.5 21.955 22.5 23.3333C22.5 24.7117 21.3783 25.8333 20 25.8333ZM20 17.5C16.7833 17.5 14.1667 20.1167 14.1667 23.3333C14.1667 26.55 16.7833 29.1667 20 29.1667C23.2167 29.1667 25.8333 26.55 25.8333 23.3333C25.8333 20.1167 23.2167 17.5 20 17.5ZM33.3333 30C33.3333 30.9183 32.5867 31.6667 31.6667 31.6667H8.33334C7.41334 31.6667 6.66668 30.9183 6.66668 30V16.6667C6.66668 15.7483 7.41334 15 8.33334 15H31.6667C32.5867 15 33.3333 15.7483 33.3333 16.6667V30ZM16.6667 9.16667C16.6667 8.70667 17.0417 8.33333 17.5 8.33333H22.5C22.9583 8.33333 23.3333 8.70667 23.3333 9.16667V11.6667H16.6667V9.16667ZM31.6667 11.6667H26.6667V9.16667C26.6667 6.87 24.7983 5 22.5 5H17.5C15.2017 5 13.3333 6.87 13.3333 9.16667V11.6667H8.33334C5.57668 11.6667 3.33334 13.91 3.33334 16.6667V30C3.33334 32.7567 5.57668 35 8.33334 35H31.6667C34.4233 35 36.6667 32.7567 36.6667 30V16.6667C36.6667 13.91 34.4233 11.6667 31.6667 11.6667Z" fill="#8F9BB3"/>
<mask id="mask0_0_265" style="mask-type:alpha" maskUnits="userSpaceOnUse" x="3" y="5" width="34" height="30">
<path fill-rule="evenodd" clip-rule="evenodd" d="M20 25.8333C18.6217 25.8333 17.5 24.7117 17.5 23.3333C17.5 21.955 18.6217 20.8333 20 20.8333C21.3783 20.8333 22.5 21.955 22.5 23.3333C22.5 24.7117 21.3783 25.8333 20 25.8333ZM20 17.5C16.7833 17.5 14.1667 20.1167 14.1667 23.3333C14.1667 26.55 16.7833 29.1667 20 29.1667C23.2167 29.1667 25.8333 26.55 25.8333 23.3333C25.8333 20.1167 23.2167 17.5 20 17.5ZM33.3333 30C33.3333 30.9183 32.5867 31.6667 31.6667 31.6667H8.33334C7.41334 31.6667 6.66668 30.9183 6.66668 30V16.6667C6.66668 15.7483 7.41334 15 8.33334 15H31.6667C32.5867 15 33.3333 15.7483 33.3333 16.6667V30ZM16.6667 9.16667C16.6667 8.70667 17.0417 8.33333 17.5 8.33333H22.5C22.9583 8.33333 23.3333 8.70667 23.3333 9.16667V11.6667H16.6667V9.16667ZM31.6667 11.6667H26.6667V9.16667C26.6667 6.87 24.7983 5 22.5 5H17.5C15.2017 5 13.3333 6.87 13.3333 9.16667V11.6667H8.33334C5.57668 11.6667 3.33334 13.91 3.33334 16.6667V30C3.33334 32.7567 5.57668 35 8.33334 35H31.6667C34.4233 35 36.6667 32.7567 36.6667 30V16.6667C36.6667 13.91 34.4233 11.6667 31.6667 11.6667Z" fill="white"/>
</mask>
<g mask="url(#mask0_0_265)">
</g>
</svg>
