<svg width="20" height="20" viewBox="0 0 20 20" fill="none" xmlns="http://www.w3.org/2000/svg">
<path fill-rule="evenodd" clip-rule="evenodd" d="M15.8333 15.8333C15.8333 16.2933 15.4592 16.6667 15 16.6667H5C4.54083 16.6667 4.16667 16.2933 4.16667 15.8333V6.66667C4.16667 6.20667 4.54083 5.83334 5 5.83334V6.66667C5 7.58584 5.7475 8.33334 6.66667 8.33334H13.3333C14.2525 8.33334 15 7.58584 15 6.66667V5.83334C15.4592 5.83334 15.8333 6.20667 15.8333 6.66667V15.8333ZM6.66667 3.33334L13.3333 3.33584V4.16667V6.66667H6.66667V4.16667V3.33334ZM15 4.16667V3.33334C15 2.41417 14.2525 1.66667 13.3333 1.66667H6.66667C5.7475 1.66667 5 2.41417 5 3.33334V4.16667C3.62167 4.16667 2.5 5.28834 2.5 6.66667V15.8333C2.5 17.2117 3.62167 18.3333 5 18.3333H15C16.3783 18.3333 17.5 17.2117 17.5 15.8333V6.66667C17.5 5.28834 16.3783 4.16667 15 4.16667Z" fill="#8F9BB3"/>
<mask id="mask0_261_362" style="mask-type:alpha" maskUnits="userSpaceOnUse" x="2" y="1" width="16" height="18">
<path fill-rule="evenodd" clip-rule="evenodd" d="M15.8333 15.8333C15.8333 16.2933 15.4592 16.6667 15 16.6667H5C4.54083 16.6667 4.16667 16.2933 4.16667 15.8333V6.66667C4.16667 6.20667 4.54083 5.83334 5 5.83334V6.66667C5 7.58584 5.7475 8.33334 6.66667 8.33334H13.3333C14.2525 8.33334 15 7.58584 15 6.66667V5.83334C15.4592 5.83334 15.8333 6.20667 15.8333 6.66667V15.8333ZM6.66667 3.33334L13.3333 3.33584V4.16667V6.66667H6.66667V4.16667V3.33334ZM15 4.16667V3.33334C15 2.41417 14.2525 1.66667 13.3333 1.66667H6.66667C5.7475 1.66667 5 2.41417 5 3.33334V4.16667C3.62167 4.16667 2.5 5.28834 2.5 6.66667V15.8333C2.5 17.2117 3.62167 18.3333 5 18.3333H15C16.3783 18.3333 17.5 17.2117 17.5 15.8333V6.66667C17.5 5.28834 16.3783 4.16667 15 4.16667Z" fill="white"/>
</mask>
<g mask="url(#mask0_261_362)">
</g>
</svg>
