<svg width="20" height="20" viewBox="0 0 20 20" fill="none" xmlns="http://www.w3.org/2000/svg">
<path fill-rule="evenodd" clip-rule="evenodd" d="M9.16669 12.5H5.83335C5.37502 12.5 5.00002 12.125 5.00002 11.6667C5.00002 11.2083 5.37502 10.8333 5.83335 10.8333H9.16669C9.62502 10.8333 10 11.2083 10 11.6667C10 12.125 9.62502 12.5 9.16669 12.5ZM14.1667 12.5H12.5C12.0417 12.5 11.6667 12.125 11.6667 11.6667C11.6667 11.2083 12.0417 10.8333 12.5 10.8333H14.1667C14.625 10.8333 15 11.2083 15 11.6667C15 12.125 14.625 12.5 14.1667 12.5ZM16.6667 13.3333C16.6667 13.7925 16.2934 14.1667 15.8334 14.1667H4.16669C3.70669 14.1667 3.33335 13.7925 3.33335 13.3333V9.16667H16.6667V13.3333ZM3.33335 6.66667C3.33335 6.20751 3.70669 5.83334 4.16669 5.83334H15.8334C16.2934 5.83334 16.6667 6.20751 16.6667 6.66667V7.50001H3.33335V6.66667ZM15.8334 4.16667H4.16669C2.78835 4.16667 1.66669 5.28834 1.66669 6.66667V13.3333C1.66669 14.7117 2.78835 15.8333 4.16669 15.8333H15.8334C17.2117 15.8333 18.3334 14.7117 18.3334 13.3333V6.66667C18.3334 5.28834 17.2117 4.16667 15.8334 4.16667Z" fill="#8F9BB3"/>
<mask id="mask0_261_338" style="mask-type:alpha" maskUnits="userSpaceOnUse" x="1" y="4" width="18" height="12">
<path fill-rule="evenodd" clip-rule="evenodd" d="M9.16669 12.5H5.83335C5.37502 12.5 5.00002 12.125 5.00002 11.6667C5.00002 11.2083 5.37502 10.8333 5.83335 10.8333H9.16669C9.62502 10.8333 10 11.2083 10 11.6667C10 12.125 9.62502 12.5 9.16669 12.5ZM14.1667 12.5H12.5C12.0417 12.5 11.6667 12.125 11.6667 11.6667C11.6667 11.2083 12.0417 10.8333 12.5 10.8333H14.1667C14.625 10.8333 15 11.2083 15 11.6667C15 12.125 14.625 12.5 14.1667 12.5ZM16.6667 13.3333C16.6667 13.7925 16.2934 14.1667 15.8334 14.1667H4.16669C3.70669 14.1667 3.33335 13.7925 3.33335 13.3333V9.16667H16.6667V13.3333ZM3.33335 6.66667C3.33335 6.20751 3.70669 5.83334 4.16669 5.83334H15.8334C16.2934 5.83334 16.6667 6.20751 16.6667 6.66667V7.50001H3.33335V6.66667ZM15.8334 4.16667H4.16669C2.78835 4.16667 1.66669 5.28834 1.66669 6.66667V13.3333C1.66669 14.7117 2.78835 15.8333 4.16669 15.8333H15.8334C17.2117 15.8333 18.3334 14.7117 18.3334 13.3333V6.66667C18.3334 5.28834 17.2117 4.16667 15.8334 4.16667Z" fill="white"/>
</mask>
<g mask="url(#mask0_261_338)">
</g>
</svg>
