<svg width="16" height="16" viewBox="0 0 16 16" fill="none" xmlns="http://www.w3.org/2000/svg">
<path fill-rule="evenodd" clip-rule="evenodd" d="M8.00001 6.00001C7.63201 6.00001 7.33334 5.70134 7.33334 5.33334C7.33334 4.96534 7.63201 4.66668 8.00001 4.66668C8.36801 4.66668 8.66668 4.96534 8.66668 5.33334C8.66668 5.70134 8.36801 6.00001 8.00001 6.00001ZM8.66668 10.6667C8.66668 11.0347 8.36801 11.3333 8.00001 11.3333C7.63201 11.3333 7.33334 11.0347 7.33334 10.6667V7.33334C7.33334 6.96534 7.63201 6.66668 8.00001 6.66668C8.36801 6.66668 8.66668 6.96534 8.66668 7.33334V10.6667ZM8.00001 1.33334C4.31801 1.33334 1.33334 4.31801 1.33334 8.00001C1.33334 11.682 4.31801 14.6667 8.00001 14.6667C11.6813 14.6667 14.6667 11.682 14.6667 8.00001C14.6667 4.31801 11.6813 1.33334 8.00001 1.33334Z" fill="#3366FF"/>
<mask id="mask0_328_99" style="mask-type:alpha" maskUnits="userSpaceOnUse" x="1" y="1" width="14" height="14">
<path fill-rule="evenodd" clip-rule="evenodd" d="M8.00001 6.00001C7.63201 6.00001 7.33334 5.70134 7.33334 5.33334C7.33334 4.96534 7.63201 4.66668 8.00001 4.66668C8.36801 4.66668 8.66668 4.96534 8.66668 5.33334C8.66668 5.70134 8.36801 6.00001 8.00001 6.00001ZM8.66668 10.6667C8.66668 11.0347 8.36801 11.3333 8.00001 11.3333C7.63201 11.3333 7.33334 11.0347 7.33334 10.6667V7.33334C7.33334 6.96534 7.63201 6.66668 8.00001 6.66668C8.36801 6.66668 8.66668 6.96534 8.66668 7.33334V10.6667ZM8.00001 1.33334C4.31801 1.33334 1.33334 4.31801 1.33334 8.00001C1.33334 11.682 4.31801 14.6667 8.00001 14.6667C11.6813 14.6667 14.6667 11.682 14.6667 8.00001C14.6667 4.31801 11.6813 1.33334 8.00001 1.33334Z" fill="white"/>
</mask>
<g mask="url(#mask0_328_99)">
</g>
</svg>
