<svg width="20" height="20" viewBox="0 0 20 20" fill="none" xmlns="http://www.w3.org/2000/svg">
<path fill-rule="evenodd" clip-rule="evenodd" d="M15.8333 9.16668H10.8333V4.16668C10.8333 3.70584 10.46 3.33334 9.99998 3.33334C9.53998 3.33334 9.16665 3.70584 9.16665 4.16668V9.16668H4.16665C3.70665 9.16668 3.33331 9.53918 3.33331 10C3.33331 10.4608 3.70665 10.8333 4.16665 10.8333H9.16665V15.8333C9.16665 16.2942 9.53998 16.6667 9.99998 16.6667C10.46 16.6667 10.8333 16.2942 10.8333 15.8333V10.8333H15.8333C16.2933 10.8333 16.6666 10.4608 16.6666 10C16.6666 9.53918 16.2933 9.16668 15.8333 9.16668Z" fill="#8F9BB3"/>
<mask id="mask0_261_398" style="mask-type:alpha" maskUnits="userSpaceOnUse" x="3" y="3" width="14" height="14">
<path fill-rule="evenodd" clip-rule="evenodd" d="M15.8333 9.16668H10.8333V4.16668C10.8333 3.70584 10.46 3.33334 9.99998 3.33334C9.53998 3.33334 9.16665 3.70584 9.16665 4.16668V9.16668H4.16665C3.70665 9.16668 3.33331 9.53918 3.33331 10C3.33331 10.4608 3.70665 10.8333 4.16665 10.8333H9.16665V15.8333C9.16665 16.2942 9.53998 16.6667 9.99998 16.6667C10.46 16.6667 10.8333 16.2942 10.8333 15.8333V10.8333H15.8333C16.2933 10.8333 16.6666 10.4608 16.6666 10C16.6666 9.53918 16.2933 9.16668 15.8333 9.16668Z" fill="white"/>
</mask>
<g mask="url(#mask0_261_398)">
</g>
</svg>
