<svg width="20" height="20" viewBox="0 0 20 20" fill="none" xmlns="http://www.w3.org/2000/svg">
<path fill-rule="evenodd" clip-rule="evenodd" d="M17.4935 5.80242C17.4918 5.74242 17.4743 5.68575 17.4585 5.62825C17.446 5.57992 17.4402 5.53075 17.4193 5.48658C17.4002 5.44325 17.3677 5.40825 17.3393 5.36825C17.3043 5.31742 17.2727 5.26658 17.2277 5.22492C17.2202 5.21742 17.2168 5.20742 17.2085 5.20075C17.1785 5.17492 17.1418 5.16575 17.1093 5.14492C17.0593 5.11242 17.0102 5.07908 16.9535 5.05742C16.8977 5.03742 16.8427 5.03242 16.7852 5.02408C16.7452 5.01825 16.7093 4.99992 16.6668 4.99992H12.5002C12.0393 4.99992 11.6668 5.37325 11.6668 5.83325C11.6668 6.29325 12.0393 6.66658 12.5002 6.66658H14.8552L11.4918 10.5899L7.9285 8.45242C7.576 8.23908 7.12267 8.31742 6.85934 8.63325L2.69267 13.6332C2.3985 13.9866 2.446 14.5124 2.79934 14.8066C2.956 14.9366 3.14434 14.9999 3.33267 14.9999C3.57184 14.9999 3.8085 14.8982 3.9735 14.6999L7.6835 10.2482L11.2377 12.3816C11.5868 12.5907 12.0352 12.5174 12.2993 12.2091L15.8335 8.08575V9.99992C15.8335 10.4599 16.206 10.8332 16.6668 10.8332C17.1277 10.8332 17.5002 10.4599 17.5002 9.99992V5.83325C17.5002 5.82242 17.4943 5.81325 17.4935 5.80242Z" fill="#8F9BB3"/>
<mask id="mask0_261_295" style="mask-type:alpha" maskUnits="userSpaceOnUse" x="2" y="5" width="16" height="10">
<path fill-rule="evenodd" clip-rule="evenodd" d="M17.4935 5.80242C17.4918 5.74242 17.4743 5.68575 17.4585 5.62825C17.446 5.57992 17.4402 5.53075 17.4193 5.48658C17.4002 5.44325 17.3677 5.40825 17.3393 5.36825C17.3043 5.31742 17.2727 5.26658 17.2277 5.22492C17.2202 5.21742 17.2168 5.20742 17.2085 5.20075C17.1785 5.17492 17.1418 5.16575 17.1093 5.14492C17.0593 5.11242 17.0102 5.07908 16.9535 5.05742C16.8977 5.03742 16.8427 5.03242 16.7852 5.02408C16.7452 5.01825 16.7093 4.99992 16.6668 4.99992H12.5002C12.0393 4.99992 11.6668 5.37325 11.6668 5.83325C11.6668 6.29325 12.0393 6.66658 12.5002 6.66658H14.8552L11.4918 10.5899L7.9285 8.45242C7.576 8.23908 7.12267 8.31742 6.85934 8.63325L2.69267 13.6332C2.3985 13.9866 2.446 14.5124 2.79934 14.8066C2.956 14.9366 3.14434 14.9999 3.33267 14.9999C3.57184 14.9999 3.8085 14.8982 3.9735 14.6999L7.6835 10.2482L11.2377 12.3816C11.5868 12.5907 12.0352 12.5174 12.2993 12.2091L15.8335 8.08575V9.99992C15.8335 10.4599 16.206 10.8332 16.6668 10.8332C17.1277 10.8332 17.5002 10.4599 17.5002 9.99992V5.83325C17.5002 5.82242 17.4943 5.81325 17.4935 5.80242Z" fill="white"/>
</mask>
<g mask="url(#mask0_261_295)">
</g>
</svg>
